<svg width="190" height="30" viewBox="0 0 190 30" fill="none" xmlns="http://www.w3.org/2000/svg">
<path d="M42 23.6507V7.34931H54.2088V11.4014H46.7518V13.5205H52.8679V17.2233H46.7518V19.5521H54.3029V23.6507H42ZM57.2995 23.6507V7.34931H62.0513L67.8146 16.1055V7.34931H72.4017V23.6507H67.6499L61.8866 14.7548V23.6507H57.2995ZM75.999 23.6507V7.34931H88.2078V11.4014H80.7508V13.5205H86.8669V17.2233H80.7508V19.5521H88.3019V23.6507H75.999ZM91.2985 23.6507V7.34931H98.285C99.5712 7.34931 100.692 7.54726 101.649 7.94315C102.614 8.33904 103.358 8.91735 103.884 9.67808C104.417 10.431 104.684 11.347 104.684 12.426C104.684 13.2178 104.543 13.9126 104.26 14.5103C103.978 15.108 103.602 15.6126 103.131 16.024C102.661 16.4354 102.143 16.7575 101.579 16.9904L105.648 23.6507H100.049L96.9677 18.0384H96.0503V23.6507H91.2985ZM96.0503 14.3356H97.791C98.4418 14.3356 98.9517 14.2192 99.3203 13.9863C99.6966 13.7534 99.8848 13.342 99.8848 12.752C99.8848 12.1543 99.6966 11.7429 99.3203 11.5178C98.9517 11.2849 98.4497 11.1685 97.8146 11.1685H96.0503V14.3356ZM115.913 24C114.659 24 113.471 23.8098 112.349 23.4295C111.228 23.0413 110.232 22.4824 109.362 21.7527C108.499 21.0231 107.817 20.1342 107.315 19.0863C106.821 18.0306 106.574 16.8352 106.574 15.5C106.574 14.1804 106.814 12.9966 107.292 11.9486C107.77 10.9007 108.433 10.008 109.28 9.27055C110.126 8.53311 111.103 7.97032 112.208 7.58219C113.314 7.19406 114.494 7 115.749 7C116.321 7 116.933 7.04269 117.583 7.12808C118.234 7.21347 118.909 7.3726 119.606 7.60548C120.312 7.83836 121.018 8.17603 121.724 8.61849L119.771 12.2397C119.23 11.8904 118.662 11.6342 118.066 11.4712C117.478 11.3004 116.831 11.2151 116.125 11.2151C115.388 11.2151 114.729 11.316 114.149 11.5178C113.569 11.7119 113.079 11.9952 112.679 12.3678C112.287 12.7404 111.985 13.1945 111.773 13.7301C111.569 14.2657 111.467 14.8712 111.467 15.5466C111.467 16.5402 111.683 17.363 112.114 18.0151C112.553 18.6671 113.134 19.1523 113.855 19.4705C114.576 19.7888 115.364 19.9479 116.219 19.9479C116.47 19.9479 116.733 19.9324 117.007 19.9014C117.282 19.8626 117.552 19.816 117.819 19.7616V17.5726H114.69V13.8931H121.935V22.6726C121.402 22.9443 120.787 23.181 120.089 23.3829C119.391 23.5847 118.677 23.7361 117.948 23.837C117.219 23.9457 116.541 24 115.913 24ZM128.508 23.6507V16.9904L122.768 7.34931H128.061L130.978 12.4959L133.872 7.34931H139.023L133.284 17.037V23.6507H128.508ZM145.72 23.6507V7.34931H150.471V19.3658H156.705V23.6507H145.72ZM157.347 23.6507L163.346 7.34931H168.991L174.966 23.6507H169.603L168.686 20.7397H163.487L162.569 23.6507H157.347ZM164.498 16.8507H167.651L166.098 12.1931L164.498 16.8507ZM176.733 23.6507V7.34931H183.602C185.342 7.34931 186.726 7.69863 187.753 8.39726C188.781 9.08813 189.294 10.1205 189.294 11.4945C189.294 11.9758 189.204 12.4144 189.024 12.8103C188.843 13.1984 188.592 13.5477 188.271 13.8582C187.95 14.161 187.577 14.421 187.154 14.6384C188.024 14.9644 188.714 15.4922 189.224 16.2219C189.741 16.9438 190 17.7822 190 18.737C190 19.7539 189.741 20.631 189.224 21.3685C188.714 22.0982 187.985 22.661 187.036 23.0568C186.095 23.4527 184.974 23.6507 183.672 23.6507H176.733ZM181.484 20.274H183.037C183.696 20.274 184.194 20.1342 184.531 19.8548C184.868 19.5676 185.037 19.1562 185.037 18.6205C185.037 18.1082 184.884 17.7046 184.578 17.4096C184.272 17.1146 183.837 16.9671 183.272 16.9671H181.484V20.274ZM181.484 13.8466H182.99C183.351 13.8466 183.656 13.7845 183.907 13.6603C184.166 13.5361 184.362 13.3575 184.495 13.1247C184.637 12.884 184.707 12.5968 184.707 12.263C184.707 11.774 184.554 11.3975 184.248 11.1336C183.943 10.8619 183.5 10.726 182.919 10.726H181.484V13.8466Z" fill="#111111"/>
<path d="M0 0V30H30V0H0ZM12.9545 27.9545L15 17.0455H6.13636L15.6818 2.72727L13.6364 12.9545H23.1818L12.9545 27.9545Z" fill="#16A34A"/>
</svg>
